<?xml version="1.0" encoding="UTF-8"?>
<svg version="1.1" xmlns="http://www.w3.org/2000/svg" width="800" height="800">
<path d="M0 0 C264 0 528 0 800 0 C800 264 800 528 800 800 C536 800 272 800 0 800 C0 536 0 272 0 0 Z " fill="#FEFEFE" transform="translate(0,0)"/>
<path d="M0 0 C0.99 0.66 1.98 1.32 3 2 C3 2.66 3 3.32 3 4 C3.66 4 4.32 4 5 4 C6.3046875 5.29296875 6.3046875 5.29296875 7.875 7.1875 C10.61639023 10.42005598 13.42730966 13.55867392 16.32226562 16.65258789 C21.26601876 21.93758437 26.01578744 27.30947068 30.546875 32.95703125 C32.39137685 35.24503593 34.25377719 37.50911101 36.140625 39.76171875 C49.61010803 55.87438613 62.07069108 72.72126433 74 90 C74.59893066 90.86044922 74.59893066 90.86044922 75.20996094 91.73828125 C109.72894024 141.49221935 141.48337012 200.7270214 141.31567383 262.56347656 C141.31250196 264.99849847 141.33613808 267.43231318 141.36132812 269.8671875 C141.4155834 283.12186048 139.99816173 295.99834639 135.3125 308.5 C135.05831299 309.19448242 134.80412598 309.88896484 134.54223633 310.60449219 C127.9372412 328.10446731 118.39334003 343.12921505 105.37646484 356.56787109 C104.05943656 357.93815983 102.77301124 359.33766582 101.48828125 360.73828125 C89.09604864 373.8516545 73.63233868 383.23401768 58 392 C56.85869355 388.57608066 57.15857816 387.82524822 58.26953125 384.515625 C66.59514897 358.30201247 67.53751273 330.89990021 62 304 C61.86078125 303.28134766 61.7215625 302.56269531 61.578125 301.82226562 C55.78195462 272.27789714 41.85073886 244.73643397 21 223 C20.28199219 222.23042969 19.56398438 221.46085938 18.82421875 220.66796875 C13.39244531 215.00464546 7.46357091 210.43388883 1 206 C-9.05882154 210.77794023 -17.02945097 218.405838 -25 226 C-25.721875 226.65742188 -26.44375 227.31484375 -27.1875 227.9921875 C-47.12223643 246.72119391 -57.88134974 273.72461453 -63 300 C-63.13277344 300.67820801 -63.26554687 301.35641602 -63.40234375 302.05517578 C-69.48077731 335.03409269 -62.93450338 368.57385429 -53 400 C-58.01310327 398.44122317 -61.47755592 395.43212721 -65.4375 392.125 C-66.14197266 391.54274658 -66.84644531 390.96049316 -67.57226562 390.3605957 C-69.02344493 389.15763586 -70.47185003 387.95132163 -71.91748047 386.74169922 C-73.80382826 385.16406673 -75.69963675 383.59869959 -77.59765625 382.03515625 C-90.53421205 371.27313699 -102.86222712 359.46602285 -113 346 C-113.39348633 345.48824219 -113.78697266 344.97648437 -114.19238281 344.44921875 C-129.67025893 324.23026289 -140.44406549 301.22624189 -140.3125 275.4375 C-140.30758545 274.29434326 -140.3026709 273.15118652 -140.29760742 271.97338867 C-139.77746474 234.10966898 -119.64082579 202.65987159 -98 173 C-97.51031738 172.3287207 -97.02063477 171.65744141 -96.51611328 170.96582031 C-89.98134435 162.05026679 -83.15297349 153.40896769 -76.1484375 144.859375 C-71.84347486 139.59920788 -67.65413259 134.2507832 -63.47607422 128.88964844 C-61.87614225 126.84143914 -60.26832134 124.79956275 -58.66015625 122.7578125 C-29.7484756 85.96076193 -3.58779951 48.02894044 0 0 Z " fill="#E93333" transform="translate(399,69)"/>
<path d="M0 0 C0.77601563 0.4125 1.55203125 0.825 2.3515625 1.25 C12.0924524 6.98376797 17.06630566 16.33775606 20 27 C23.76434864 43.69956009 22.49067735 64.1588499 13.75 79 C6.72620365 88.99368909 -0.67804574 92.78826245 -12.453125 95.58203125 C-24.45821056 97.552191 -35.38373905 95.57588489 -45.8125 89.375 C-54.54450122 83.07910057 -59.58141324 72.98755309 -61.68359375 62.6328125 C-64.63306905 43.39002882 -64.14749126 25.7212369 -53 9 C-40.95787584 -5.06580063 -16.12416234 -9.31359558 0 0 Z " fill="#FDFDFD" transform="translate(288,511)"/>
<path d="M0 0 C5.94 0 11.88 0 18 0 C23.15283406 10.92133141 28.07424874 21.92011996 32.875 33 C34.36010351 36.42212412 35.84608381 39.84386726 37.33203125 43.265625 C37.9001075 44.57469818 37.9001075 44.57469818 38.47966003 45.91021729 C41.26272401 52.31849046 44.07066048 58.71554357 46.88671875 65.109375 C48.06449656 67.78936214 49.24174915 70.46957925 50.41876221 73.14990234 C51.17904218 74.87827242 51.94119843 76.6058184 52.70526123 78.33251953 C53.76810539 80.73515721 54.82421501 83.14064971 55.87890625 85.546875 C56.19679611 86.26067322 56.51468597 86.97447144 56.84220886 87.7098999 C58.12298065 90.64710288 59 92.75870024 59 96 C59.66 96 60.32 96 61 96 C61.12904724 95.26398056 61.25809448 94.52796112 61.39105225 93.76963806 C61.95417918 91.20840391 62.69327709 89.07946661 63.74316406 86.68579102 C64.10199677 85.86099747 64.46082947 85.03620392 64.83053589 84.18641663 C65.2216153 83.3011882 65.6126947 82.41595978 66.015625 81.50390625 C66.42322052 80.5705394 66.83081604 79.63717255 67.25076294 78.67552185 C68.57932276 75.63584752 69.91466726 72.59920425 71.25 69.5625 C72.16539778 67.47093128 73.08027175 65.37913323 73.99462891 63.28710938 C75.81567066 59.12166275 77.63887956 54.95717629 79.46386719 50.79345703 C82.52210486 43.81241118 85.55761666 36.82162584 88.58435059 29.82687378 C89.34361804 28.07251112 90.10391577 26.31859446 90.86425781 24.56469727 C91.32928711 23.49147217 91.79431641 22.41824707 92.2734375 21.3125 C92.71526367 20.29285156 93.15708984 19.27320313 93.61230469 18.22265625 C94.63043688 15.85823947 95.64139526 13.49144823 96.64550781 11.12109375 C96.91972565 10.47551514 97.19394348 9.82993652 97.47647095 9.16479492 C98.24873118 7.34503693 99.01824056 5.52411228 99.78759766 3.703125 C101 1 101 1 102 0 C107.94 0 113.88 0 120 0 C120 39.93 120 79.86 120 121 C115.38 121 110.76 121 106 121 C105.505 73.48 105.505 73.48 105 25 C97.575 42.325 97.575 42.325 90 60 C85.55454947 70.30409809 81.10745697 80.60745205 76.65087891 90.90673828 C75.22710418 94.197774 73.8048439 97.48946071 72.3828125 100.78125 C71.95380646 101.77153198 71.52480042 102.76181396 71.08279419 103.78210449 C70.69082855 104.68996704 70.29886292 105.59782959 69.89501953 106.53320312 C69.3799736 107.7238739 69.3799736 107.7238739 68.85452271 108.93859863 C68.16645454 110.59845465 67.56820417 112.29538748 67 114 C62.05 114 57.1 114 52 114 C51.35095703 112.46174561 50.70191406 110.92349121 50.03320312 109.33862305 C43.17188564 93.09116214 36.24878289 76.87098164 29.29406738 60.66326904 C27.94818613 57.52636227 26.60303368 54.389143 25.2578125 51.25195312 C22.90506077 45.76532857 20.55171134 40.27896066 18.19787598 34.7928009 C16.7979056 31.52882482 15.39902129 28.264383 14 25 C13.67 56.68 13.34 88.36 13 121 C8.71 121 4.42 121 0 121 C0 81.07 0 41.14 0 0 Z " fill="#424242" transform="translate(67,496)"/>
<path d="M0 0 C3.2578125 -0.29296875 3.2578125 -0.29296875 7.125 -0.1875 C9.04699219 -0.14689453 9.04699219 -0.14689453 11.0078125 -0.10546875 C11.99523437 -0.07066406 12.98265625 -0.03585937 14 0 C18.03027127 9.41935187 21.67493707 18.96455231 25.25 28.5625 C25.87362866 30.23264089 26.497414 31.90272328 27.12133789 33.57275391 C28.17064793 36.38208112 29.21954374 39.19156058 30.26747131 42.00140381 C32.83080148 48.87396197 35.40177844 55.74361962 37.97688866 62.61176968 C40.26957105 68.72676241 42.55986529 74.84264617 44.84862709 80.9591074 C46.28766563 84.80453595 47.72776313 88.64956065 49.17028809 92.49368286 C50.54502957 96.15746648 51.91659644 99.82242325 53.28582191 103.48827171 C53.79834451 104.85877299 54.31201358 106.2288461 54.82686424 107.5984745 C55.5353032 109.48362485 56.23932907 111.3704319 56.94311523 113.25732422 C57.34199448 114.3224826 57.74087372 115.38764099 58.15184021 116.4850769 C59 119 59 119 59 121 C54.05 121 49.1 121 44 121 C42.1445353 115.91113754 40.29322861 110.82078954 38.44580078 105.72900391 C37.81641577 103.99616433 37.18588584 102.26374016 36.55419922 100.53173828 C35.6477179 98.04567413 34.74533134 95.55815716 33.84375 93.0703125 C33.4172113 91.90461227 33.4172113 91.90461227 32.98205566 90.71536255 C31 85.22774341 31 85.22774341 31 83 C14.83 83 -1.34 83 -18 83 C-18.99 86.3 -19.98 89.6 -21 93 C-21.86705756 95.37935268 -22.76439606 97.74800891 -23.69921875 100.1015625 C-23.9391304 100.70890228 -24.17904205 101.31624207 -24.42622375 101.94198608 C-25.1761396 103.83787496 -25.93168232 105.7314574 -26.6875 107.625 C-27.20415478 108.92823533 -27.72043342 110.23161985 -28.23632812 111.53515625 C-29.4872018 114.69156646 -30.74309017 117.84598858 -32 121 C-36.62 121 -41.24 121 -46 121 C-45.2938301 116.76298059 -44.70279705 113.80912791 -43.20019531 109.95922852 C-42.82685059 108.99407822 -42.45350586 108.02892792 -42.06884766 107.03453064 C-41.65940918 105.99317459 -41.2499707 104.95181854 -40.828125 103.87890625 C-40.39773926 102.7701564 -39.96735352 101.66140656 -39.52392578 100.51905823 C-38.34886718 97.49411695 -37.16893914 94.47113027 -35.98695374 91.44889069 C-33.98934992 86.33559653 -32.00523313 81.21703593 -30.01836395 76.0995636 C-29.24436655 74.1065881 -28.46964142 72.11389646 -27.69488525 70.12121582 C-24.07094148 60.79442133 -20.49132294 51.45137526 -16.9375 42.09765625 C-16.4506723 40.81716066 -15.96383563 39.53666848 -15.47698975 38.25617981 C-13.60560282 33.33256009 -11.73557165 28.40843626 -9.8717041 23.48196411 C-8.5894931 20.09354241 -7.3029239 16.70680381 -6.015625 13.3203125 C-5.63639893 12.31360001 -5.25717285 11.30688751 -4.86645508 10.26966858 C-4.34136353 8.89118996 -4.34136353 8.89118996 -3.80566406 7.48486328 C-3.50339905 6.6863797 -3.20113403 5.88789612 -2.88970947 5.06521606 C-2 3 -2 3 0 0 Z " fill="#414141" transform="translate(464,496)"/>
<path d="M0 0 C1.93166016 0.01740234 1.93166016 0.01740234 3.90234375 0.03515625 C5.19269531 0.04417969 6.48304688 0.05320312 7.8125 0.0625 C8.81152344 0.07410156 9.81054688 0.08570313 10.83984375 0.09765625 C14.65655158 8.33031347 17.80262175 16.78713576 20.96484375 25.28515625 C21.5904387 26.96115158 22.2161767 28.63709352 22.84204102 30.31298828 C24.29693251 34.21133027 25.74938714 38.11057218 27.20068359 42.01025391 C29.1589857 47.27145327 31.12090227 52.5312928 33.08447266 57.79052734 C35.75341717 64.93925825 38.41956362 72.08902643 41.08283997 79.23987103 C42.58127196 83.26308909 44.08064333 87.28595078 45.58233643 91.30795288 C47.01563707 95.14720579 48.44569893 98.98765002 49.87335777 102.82900429 C50.40827457 104.26664514 50.94432644 105.70386419 51.4815464 107.14064598 C52.22111378 109.11918281 52.95664321 111.09917432 53.69116211 113.07958984 C54.10780624 114.19804291 54.52445038 115.31649597 54.95372009 116.46884155 C55.83984375 119.09765625 55.83984375 119.09765625 55.83984375 121.09765625 C51.21984375 121.09765625 46.59984375 121.09765625 41.83984375 121.09765625 C38.34083712 112.97093117 35.14777775 104.75128359 32.02734375 96.47265625 C31.61814697 95.39306641 31.2089502 94.31347656 30.78735352 93.20117188 C30.40635498 92.18474609 30.02535645 91.16832031 29.6328125 90.12109375 C29.28758545 89.20247559 28.9423584 88.28385742 28.58666992 87.33740234 C27.83984375 85.09765625 27.83984375 85.09765625 27.83984375 83.09765625 C11.66984375 83.09765625 -4.50015625 83.09765625 -21.16015625 83.09765625 C-22.15015625 86.39765625 -23.14015625 89.69765625 -24.16015625 93.09765625 C-24.94643982 95.30604721 -25.75844813 97.50559095 -26.60546875 99.69140625 C-27.04246094 100.82320312 -27.47945312 101.955 -27.9296875 103.12109375 C-28.37699219 104.26835938 -28.82429687 105.415625 -29.28515625 106.59765625 C-29.74019531 107.77585937 -30.19523438 108.9540625 -30.6640625 110.16796875 C-33.99537628 118.7680963 -33.99537628 118.7680963 -35.16015625 121.09765625 C-39.78015625 121.09765625 -44.40015625 121.09765625 -49.16015625 121.09765625 C-48.51005067 117.84712836 -47.97156733 115.30443092 -46.83520508 112.30371094 C-46.56511124 111.58499817 -46.2950174 110.8662854 -46.01673889 110.12579346 C-45.71988693 109.34822693 -45.42303497 108.5706604 -45.1171875 107.76953125 C-44.80087875 106.93218445 -44.48457001 106.09483765 -44.15867615 105.2321167 C-43.10076638 102.43572503 -42.03687327 99.64165311 -40.97265625 96.84765625 C-40.22414364 94.87440214 -39.47577446 92.90109362 -38.72753906 90.92773438 C-30.12987297 68.28566744 -21.39139468 45.69707166 -12.64659119 23.11151123 C-12.26080399 22.11500549 -11.87501678 21.11849976 -11.47753906 20.09179688 C-11.10230103 19.12411377 -10.72706299 18.15643066 -10.3404541 17.15942383 C-9.48405734 14.93787626 -8.63536771 12.71335273 -7.79138184 10.48706055 C-7.34170044 9.30345947 -6.89201904 8.1198584 -6.42871094 6.90039062 C-6.01868835 5.81512085 -5.60866577 4.72985107 -5.18621826 3.61169434 C-3.75958334 0.11617996 -3.75958334 0.11617996 0 0 Z " fill="#414141" transform="translate(691.16015625,495.90234375)"/>
<path d="M0 0 C11.09264134 9.26561806 18.38387762 22.09497764 20.35546875 36.46484375 C21.99914158 58.60876941 21.38907201 79.9198014 6.38671875 97.69140625 C-4.90370959 109.34542466 -18.78372885 114.14509931 -34.70507812 114.54638672 C-51.22314759 114.69529632 -65.19886724 110.53859261 -77.5546875 99.15234375 C-90.50997892 85.55348494 -93.88508842 66.60607733 -93.78491211 48.51269531 C-93.31760668 30.59160923 -87.4664739 14.79617455 -74.36328125 2.25390625 C-54.60441203 -15.5839618 -21.13036168 -15.61201929 0 0 Z M-67.67578125 14.37890625 C-79.33466516 29.38338293 -79.65379583 47.20937148 -77.61328125 65.19140625 C-75.90694617 76.32377169 -71.77425061 87.0228699 -62.81640625 94.33203125 C-51.32076651 102.0607382 -40.1035106 103.8869986 -26.44921875 101.59765625 C-14.85765144 99.08742655 -7.38869016 93.94750627 -0.8671875 84.08203125 C1.7997587 79.06678696 3.25404289 73.74000725 4.63671875 68.25390625 C4.81251465 67.64659668 4.98831055 67.03928711 5.16943359 66.41357422 C6.17005784 61.78895451 5.86472703 56.96563183 5.88671875 52.25390625 C5.90734375 51.18011719 5.92796875 50.10632813 5.94921875 49 C6.0120847 35.93959873 2.73737464 24.83202358 -4.55078125 14.00390625 C-11.89339421 6.82446247 -21.6129 1.90396602 -31.95874023 1.88696289 C-32.71098877 1.9049292 -33.4632373 1.92289551 -34.23828125 1.94140625 C-35.02984619 1.95486084 -35.82141113 1.96831543 -36.63696289 1.98217773 C-49.02572726 2.29879503 -58.79108702 5.07665459 -67.67578125 14.37890625 Z " fill="#414141" transform="translate(303.36328125,504.74609375)"/>
<path d="M0 0 C1.69286133 -0.01160156 1.69286133 -0.01160156 3.41992188 -0.0234375 C12.98869568 -0.00117159 20.81223676 1.44553772 29.5625 5.25 C30.7690625 5.765625 31.975625 6.28125 33.21875 6.8125 C36.0625 8.25 36.0625 8.25 37.0625 10.25 C36.06640625 12.6328125 36.06640625 12.6328125 34.625 15.375 C33.91537109 16.74011719 33.91537109 16.74011719 33.19140625 18.1328125 C32.81886719 18.83148437 32.44632813 19.53015625 32.0625 20.25 C27.45165923 19.2149133 23.01874684 17.58464699 18.55078125 16.06640625 C5.97657799 11.82480874 -7.83101217 11.12490006 -20.13671875 16.70703125 C-31.86069597 23.16584715 -38.69900572 32.76169465 -42.625 45.4765625 C-46.31313996 60.79258815 -44.74155271 79.85074648 -36.58984375 93.5078125 C-29.89687531 102.89581623 -21.19018968 109.01136301 -9.75 110.9296875 C0.70897275 112.12084829 9.74233779 110.95563266 19.76171875 108.125 C23.0625 107.25 23.0625 107.25 26.0625 107.25 C26.0625 95.7 26.0625 84.15 26.0625 72.25 C16.8225 72.25 7.5825 72.25 -1.9375 72.25 C-1.9375 68.29 -1.9375 64.33 -1.9375 60.25 C11.9225 60.25 25.7825 60.25 40.0625 60.25 C40.0625 78.4 40.0625 96.55 40.0625 115.25 C26.51559509 120.89454371 26.51559509 120.89454371 21.75 122 C20.82574219 122.22171875 19.90148437 122.4434375 18.94921875 122.671875 C-0.34992557 126.53692691 -19.22354306 125.80834671 -36.15625 115.203125 C-47.5740076 107.1850368 -55.33568253 94.20333035 -58.5703125 80.5859375 C-62.22919497 58.57456518 -59.90771374 38.43230624 -47.2109375 19.703125 C-35.35435982 5.20550869 -18.00783795 -0.12299036 0 0 Z " fill="#424242" transform="translate(590.9375,494.75)"/>
<path d="M0 0 C4.62 0 9.24 0 14 0 C14 35.64 14 71.28 14 108 C31.49 108 48.98 108 67 108 C67 111.96 67 115.92 67 120 C44.89 120 22.78 120 0 120 C0 80.4 0 40.8 0 0 Z " fill="#3E3E3E" transform="translate(348,497)"/>
<path d="M0 0 C0.66 0 1.32 0 2 0 C4.35048558 6.87458249 6.69770273 13.75027156 9.04072571 20.62740135 C10.12872735 23.82051394 11.21786134 27.01323096 12.30957031 30.20507812 C13.56339655 33.8727331 14.8133363 37.54169231 16.0625 41.2109375 C16.45622803 42.35992523 16.84995605 43.50891296 17.25561523 44.69271851 C17.61598877 45.7536673 17.9763623 46.81461609 18.34765625 47.90771484 C18.66742432 48.84481293 18.98719238 49.78191101 19.31665039 50.74740601 C20 53 20 53 20 55 C7.46 55 -5.08 55 -18 55 C-17.33272235 50.32905646 -16.84516005 47.04166918 -15.32592773 42.79907227 C-14.98565048 41.83860489 -14.64537323 40.87813751 -14.29478455 39.88856506 C-13.7447451 38.36784645 -13.7447451 38.36784645 -13.18359375 36.81640625 C-12.80767593 35.76090073 -12.43175812 34.7053952 -12.04444885 33.61790466 C-10.8483109 30.26385775 -9.64305002 26.91317394 -8.4375 23.5625 C-7.62244165 21.28211727 -6.80798183 19.00152052 -5.99414062 16.72070312 C-4.00301954 11.14463785 -2.00440821 5.57130183 0 0 Z " fill="#FAFAFA" transform="translate(694,512)"/>
<path d="M0 0 C0.66 0 1.32 0 2 0 C4.34866551 7.0228686 6.69572924 14.04627031 9.04072571 21.07036495 C10.12954661 24.33159982 11.21892714 27.59264554 12.30957031 30.85327148 C13.5621957 34.59824565 14.81241644 38.3440203 16.0625 42.08984375 C16.45622803 43.26586655 16.84995605 44.44188934 17.25561523 45.65354919 C17.79617554 47.27511681 17.79617554 47.27511681 18.34765625 48.92944336 C18.66742432 49.88652695 18.98719238 50.84361053 19.31665039 51.82969666 C20 54 20 54 20 55 C7.46 55 -5.08 55 -18 55 C-16.87494181 47.12459267 -16.87494181 47.12459267 -15.43359375 43.0144043 C-15.11656494 42.10043381 -14.79953613 41.18646332 -14.47290039 40.24479675 C-14.13121826 39.28100601 -13.78953613 38.31721527 -13.4375 37.32421875 C-13.0861499 36.31784866 -12.7347998 35.31147858 -12.37280273 34.27461243 C-11.25452375 31.07677346 -10.12722764 27.88219404 -9 24.6875 C-8.24162865 22.52037778 -7.48381018 20.35306199 -6.7265625 18.18554688 C-5.34300654 14.23545696 -3.95943972 10.28538158 -2.56640625 6.33862305 C-2.28740479 5.54699265 -2.00840332 4.75536224 -1.72094727 3.93974304 C-1 2 -1 2 0 0 Z " fill="#FAFAFA" transform="translate(470,512)"/>
</svg>
